REM DIRINDEX 1\2,1\3,1\4,1\5
REM DIRNAME cjc004,folder01,folder02,folder03,folder04
TITLE ""
FILE "1Q_t_1719-1728.mp3" MP3
  TRACK 01 AUDIO
    TITLE "3:cjc004_6064"
    INDEX 01 00:00:00
  TRACK 02 AUDIO
    TITLE "0:"
    INDEX 01 00:01:26
  TRACK 03 AUDIO
    TITLE "4:cjc004_6065"
    INDEX 01 00:01:56
  TRACK 04 AUDIO
    TITLE "0:"
    INDEX 01 00:02:57
  TRACK 05 AUDIO
    TITLE "5:cjc004_6066"
    INDEX 01 00:03:06
  TRACK 06 AUDIO
    TITLE "0:"
    INDEX 01 00:08:26
  TRACK 07 AUDIO
    TITLE "3:cjc004_6067"
    INDEX 01 00:09:04
  TRACK 08 AUDIO
    TITLE "0:"
    INDEX 01 00:10:18
  TRACK 09 AUDIO
    TITLE "4:cjc004_6068"
    INDEX 01 00:10:43
  TRACK 10 AUDIO
    TITLE "0:"
    INDEX 01 00:11:46
  TRACK 11 AUDIO
    TITLE "5:cjc004_6069"
    INDEX 01 00:11:68
  TRACK 12 AUDIO
    TITLE "0:"
    INDEX 01 00:16:02
  TRACK 13 AUDIO
    TITLE "3:cjc004_6070"
    INDEX 01 00:16:55
  TRACK 14 AUDIO
    TITLE "0:"
    INDEX 01 00:17:63
  TRACK 15 AUDIO
    TITLE "4:cjc004_6071"
    INDEX 01 00:18:19
  TRACK 16 AUDIO
    TITLE "0:"
    INDEX 01 00:19:20
  TRACK 17 AUDIO
    TITLE "5:cjc004_6072"
    INDEX 01 00:19:48
  TRACK 18 AUDIO
    TITLE "0:"
    INDEX 01 00:24:39
  TRACK 19 AUDIO
    TITLE "3:cjc004_6073"
    INDEX 01 00:25:19
  TRACK 20 AUDIO
    TITLE "0:"
    INDEX 01 00:26:42
  TRACK 21 AUDIO
    TITLE "4:cjc004_6074"
    INDEX 01 00:26:71
  TRACK 22 AUDIO
    TITLE "0:"
    INDEX 01 00:28:06
  TRACK 23 AUDIO
    TITLE "5:cjc004_6075"
    INDEX 01 00:28:31
  TRACK 24 AUDIO
    TITLE "0:"
    INDEX 01 00:32:68
  TRACK 25 AUDIO
    TITLE "3:cjc004_6076"
    INDEX 01 00:33:44
  TRACK 26 AUDIO
    TITLE "0:"
    INDEX 01 00:34:69
  TRACK 27 AUDIO
    TITLE "4:cjc004_6077"
    INDEX 01 00:35:23
  TRACK 28 AUDIO
    TITLE "0:"
    INDEX 01 00:36:54
  TRACK 29 AUDIO
    TITLE "5:cjc004_6078"
    INDEX 01 00:37:01
  TRACK 30 AUDIO
    TITLE "0:"
    INDEX 01 00:41:55
  TRACK 31 AUDIO
    TITLE "3:cjc004_6079"
    INDEX 01 00:42:31
  TRACK 32 AUDIO
    TITLE "0:"
    INDEX 01 00:43:50
  TRACK 33 AUDIO
    TITLE "4:cjc004_6080"
    INDEX 01 00:43:74
  TRACK 34 AUDIO
    TITLE "0:"
    INDEX 01 00:45:08
  TRACK 35 AUDIO
    TITLE "5:cjc004_6081"
    INDEX 01 00:45:32
  TRACK 36 AUDIO
    TITLE "0:"
    INDEX 01 00:49:23
  TRACK 37 AUDIO
    TITLE "3:cjc004_6082"
    INDEX 01 00:50:01
  TRACK 38 AUDIO
    TITLE "0:"
    INDEX 01 00:51:48
  TRACK 39 AUDIO
    TITLE "4:cjc004_6083"
    INDEX 01 00:51:73
  TRACK 40 AUDIO
    TITLE "0:"
    INDEX 01 00:53:00
  TRACK 41 AUDIO
    TITLE "5:cjc004_6084"
    INDEX 01 00:53:23
  TRACK 42 AUDIO
    TITLE "0:"
    INDEX 01 00:58:22
  TRACK 43 AUDIO
    TITLE "3:cjc004_6085"
    INDEX 01 00:59:04
  TRACK 44 AUDIO
    TITLE "0:"
    INDEX 01 01:00:27
  TRACK 45 AUDIO
    TITLE "4:cjc004_6086"
    INDEX 01 01:00:57
  TRACK 46 AUDIO
    TITLE "0:"
    INDEX 01 01:02:30
  TRACK 47 AUDIO
    TITLE "5:cjc004_6087"
    INDEX 01 01:02:54
  TRACK 48 AUDIO
    TITLE "0:"
    INDEX 01 01:09:03
  TRACK 49 AUDIO
    TITLE "3:cjc004_6088"
    INDEX 01 01:09:56
  TRACK 50 AUDIO
    TITLE "0:"
    INDEX 01 01:11:05
  TRACK 51 AUDIO
    TITLE "4:cjc004_6089"
    INDEX 01 01:11:33
  TRACK 52 AUDIO
    TITLE "0:"
    INDEX 01 01:12:42
  TRACK 53 AUDIO
    TITLE "5:cjc004_6090"
    INDEX 01 01:12:66
  TRACK 54 AUDIO
    TITLE "0:"
    INDEX 01 01:17:26
  TRACK 55 AUDIO
    TITLE "3:cjc004_6091"
    INDEX 01 01:18:04
  TRACK 56 AUDIO
    TITLE "0:"
    INDEX 01 01:19:36
  TRACK 57 AUDIO
    TITLE "4:cjc004_6092"
    INDEX 01 01:19:64
  TRACK 58 AUDIO
    TITLE "0:"
    INDEX 01 01:21:06
  TRACK 59 AUDIO
    TITLE "5:cjc004_6093"
    INDEX 01 01:21:35
  TRACK 60 AUDIO
    TITLE "0:"
    INDEX 01 01:26:17
